<svg width="24" height="24" viewBox="0 0 24 24" fill="none" xmlns="http://www.w3.org/2000/svg">
<path fill-rule="evenodd" clip-rule="evenodd" d="M2 4C2 2.89543 2.89543 2 4 2H20C21.1046 2 22 2.89543 22 4V16.1166C22 17.2212 21.1046 18.1166 20 18.1166H14.883L12.8547 21.5137C12.4667 22.1636 11.5255 22.1636 11.1375 21.5137L9.10921 18.1166H4C2.89543 18.1166 2 17.2212 2 16.1166V4ZM8.66797 7.1802C8.66797 5.65695 10.1635 4.41735 12.0013 4.41735C13.8391 4.41735 15.3346 5.65695 15.3346 7.1802C15.3346 7.96024 15.1569 8.54504 14.8346 9.01473C14.518 9.4752 14.0991 9.76714 13.7846 9.98449C13.4513 10.2147 13.2513 10.3538 13.1002 10.5555C12.9635 10.7369 12.8346 11.0215 12.8346 11.5547V12.0152C12.8346 12.1984 12.7468 12.3741 12.5906 12.5036C12.4343 12.6331 12.2223 12.7059 12.0013 12.7059C11.7803 12.7059 11.5683 12.6331 11.412 12.5036C11.2558 12.3741 11.168 12.1984 11.168 12.0152V11.5547C11.168 10.8216 11.3502 10.2718 11.6835 9.827C11.9813 9.42915 12.3724 9.16024 12.6613 8.96223L12.718 8.92355C13.0291 8.70897 13.2335 8.55425 13.3857 8.33138C13.5324 8.11772 13.668 7.78158 13.668 7.1802C13.668 6.41949 12.9191 5.79877 12.0013 5.79877C11.0835 5.79877 10.3346 6.41949 10.3346 7.1802C10.3346 7.36338 10.2468 7.53907 10.0906 7.6686C9.93428 7.79814 9.72232 7.87091 9.5013 7.87091C9.28029 7.87091 9.06833 7.79814 8.91205 7.6686C8.75577 7.53907 8.66797 7.36338 8.66797 7.1802ZM12.787 15.4292C12.5786 15.6019 12.296 15.699 12.0013 15.699C11.7066 15.699 11.424 15.6019 11.2156 15.4292C11.0073 15.2565 10.8902 15.0223 10.8902 14.778C10.8902 14.5338 11.0073 14.2995 11.2156 14.1268C11.424 13.9541 11.7066 13.8571 12.0013 13.8571C12.296 13.8571 12.5786 13.9541 12.787 14.1268C12.9953 14.2995 13.1124 14.5338 13.1124 14.778C13.1124 15.0223 12.9953 15.2565 12.787 15.4292Z" fill="#CF5252"/>
</svg>
